<svg width="13" height="17" viewBox="0 0 13 17" fill="none" xmlns="http://www.w3.org/2000/svg">
<path d="M11.0032 7.2296V4.53742C11.0104 3.31927 10.5239 2.14798 9.65533 1.29383C8.8156 0.457706 7.71638 0 6.5523 0C6.53428 0 6.51265 0 6.49463 0C4.01149 0.00360399 1.99325 2.03625 1.99325 4.53742V7.2296C1.05622 7.34132 0.37146 8.12699 0.37146 9.07844V15.1259C0.37146 16.1531 1.19317 17 2.2203 17H10.7798C11.8069 17 12.6286 16.1531 12.6286 15.1259V9.07844C12.625 8.13059 11.9403 7.34132 11.0032 7.2296ZM2.71045 4.53742H2.71405C2.71405 2.43269 4.41153 0.709985 6.49824 0.709985H6.50184C7.49294 0.706381 8.44439 1.09922 9.14716 1.79839C9.87877 2.52279 10.286 3.51028 10.2788 4.53742V7.2332H9.48594V4.53742C9.49315 3.71931 9.16879 2.93364 8.58855 2.35701C8.04074 1.8092 7.29832 1.49926 6.52346 1.49926H6.50184C4.84401 1.49926 3.50332 2.86156 3.50332 4.53381V7.2332H2.71045V4.53742ZM8.76875 4.53742V7.2332H4.22772V4.53742C4.22772 3.26161 5.24405 2.22366 6.50544 2.22366H6.52707C7.11091 2.22366 7.67313 2.45792 8.08759 2.87238C8.52728 3.31206 8.77595 3.91393 8.76875 4.53742ZM11.9403 15.1367C11.9403 15.7674 11.4285 16.2792 10.7978 16.2792H2.23472C1.60402 16.2792 1.09226 15.7674 1.09226 15.1367V9.09646C1.09226 8.46576 1.60402 7.954 2.23472 7.954H10.7978C11.4285 7.954 11.9403 8.46576 11.9403 9.09646V15.1367Z" fill="#000842"/>
</svg>
